<svg xmlns="http://www.w3.org/2000/svg" width="140.264" height="140.23" viewBox="0 0 140.264 140.23">
  <path id="Union_9" data-name="Union 9" d="M48.408,138.558a2.053,2.053,0,0,1,0-2.95L67.515,116.5V105.409H2.116A2.041,2.041,0,0,1,0,103.357a2.094,2.094,0,0,1,2.116-2.116H137.083a2.135,2.135,0,0,1,2.116,2.116,2.08,2.08,0,0,1-2.116,2.052h-65.4V116.5L90.79,135.607a2.053,2.053,0,0,1,0,2.95,1.95,1.95,0,0,1-1.475.641,2.189,2.189,0,0,1-1.538-.641L71.683,122.464v14.619a2.084,2.084,0,1,1-4.168,0V122.464L51.358,138.558a2.046,2.046,0,0,1-1.5.673A1.9,1.9,0,0,1,48.408,138.558ZM8.4,94.893a2.081,2.081,0,0,1-2.052-2.116V12.631A2.041,2.041,0,0,1,8.4,10.515H130.8a2.094,2.094,0,0,1,2.116,2.116V92.777a2.135,2.135,0,0,1-2.116,2.116Zm2.18-4.232h118.1V14.747H10.579Zm6.54-7.63a2.188,2.188,0,0,1-.064-3.013L32.7,63.924a7.9,7.9,0,1,1,15-3.462,6.236,6.236,0,0,1-.192,1.475l3.013,2.051A7.9,7.9,0,0,1,56.1,61.681a7.214,7.214,0,0,1,3.27.769l9.939-12.5a8.193,8.193,0,0,1-1.282-4.232,7.919,7.919,0,1,1,15.837,0l8.078,3.141A8.009,8.009,0,0,1,98.8,44.817a8.213,8.213,0,0,1,3.077.577L116.693,23.4a2.149,2.149,0,0,1,2.949-.578,2.061,2.061,0,0,1,.578,2.885L105.152,48.023a8.125,8.125,0,0,1,1.6,4.745A7.978,7.978,0,0,1,98.8,60.655a7.884,7.884,0,0,1-7.887-7.694l-8.207-3.142A8,8,0,0,1,75.979,53.6a8.9,8.9,0,0,1-3.526-.833l-9.81,12.375a8,8,0,0,1,1.346,4.424,7.887,7.887,0,1,1-15.773,0,6.223,6.223,0,0,1,.257-1.859l-2.885-1.923A7.722,7.722,0,0,1,35.52,67.13L20.133,82.967a1.989,1.989,0,0,1-1.539.641A2.258,2.258,0,0,1,17.119,83.031ZM52.384,69.566A3.721,3.721,0,0,0,56.1,73.285a3.687,3.687,0,0,0,0-7.373A3.708,3.708,0,0,0,52.384,69.566Zm-16.35-9.1a3.719,3.719,0,0,0,7.438,0,3.719,3.719,0,0,0-7.438,0ZM95.15,52.768A3.687,3.687,0,1,0,98.8,49.049,3.695,3.695,0,0,0,95.15,52.768ZM72.26,45.715A3.719,3.719,0,1,0,75.979,42,3.708,3.708,0,0,0,72.26,45.715ZM2.116,4.168A2.135,2.135,0,0,1,0,2.052,2.08,2.08,0,0,1,2.116,0H137.083a2.1,2.1,0,0,1,2.181,2.052,2.149,2.149,0,0,1-2.181,2.116Z" transform="translate(0.5 0.5)" stroke="rgba(0,0,0,0)" stroke-miterlimit="10" stroke-width="1"/>
</svg>
