<?xml version="1.0" encoding="UTF-8" standalone="no"?>
<svg
   version="1.0"
   width="237.26363pt"
   height="161.1523pt"
   viewBox="0 0 237.26363 161.1523"
   preserveAspectRatio="xMidYMid meet"
   id="svg174"
   sodipodi:docname="iiith.svg"
   inkscape:version="1.1 (c4e8f9e, 2021-05-24)"
   xmlns:inkscape="http://www.inkscape.org/namespaces/inkscape"
   xmlns:sodipodi="http://sodipodi.sourceforge.net/DTD/sodipodi-0.dtd"
   xmlns="http://www.w3.org/2000/svg"
   xmlns:svg="http://www.w3.org/2000/svg">
  <defs
     id="defs178" />
  <sodipodi:namedview
     id="namedview176"
     pagecolor="#ffffff"
     bordercolor="#666666"
     borderopacity="1.0"
     inkscape:pageshadow="2"
     inkscape:pageopacity="0.0"
     inkscape:pagecheckerboard="0"
     inkscape:document-units="pt"
     showgrid="false"
     inkscape:zoom="2.5631443"
     inkscape:cx="126.21217"
     inkscape:cy="122.70085"
     inkscape:window-width="1920"
     inkscape:window-height="1043"
     inkscape:window-x="0"
     inkscape:window-y="0"
     inkscape:window-maximized="1"
     inkscape:current-layer="svg174" />
  <g
     transform="matrix(0.1,0,0,-0.1,-116.27419,192.00049)"
     fill="#000000"
     stroke="none"
     id="g172">
    <path
       id="path2"
       style="stroke-width:1.65081"
       d="m 2135.01,1920.0049 c -9.2853,0 -18.5826,-5.2864 -20.1301,-12.3302 0,-8.8049 -3.0997,-21.1369 -4.6472,-31.7027 -7.7378,-44.0243 -52.6091,-137.3678 -54.1567,-109.1923 0,15.8488 -7.7392,29.9486 -17.0245,29.9486 -12.3803,0 -10.8223,10.571 3.1057,31.7026 20.118,26.4146 18.572,28.1807 -6.1887,5.2881 -15.4755,-14.0878 -24.7729,-35.2332 -20.1302,-49.321 4.6426,-12.3268 -1.5385,-22.8806 -13.9189,-22.8806 -12.3803,0 -23.2132,-7.0524 -23.2132,-17.6183 0,-8.8048 12.3623,-12.3319 27.8377,-5.288 21.6657,8.8048 23.2344,7.0473 6.2114,-14.0844 -17.023,-21.1316 -23.2207,-21.1196 -38.6963,3.534 -17.0229,24.6536 -21.6671,24.6399 -40.2376,3.5082 -17.0231,-21.1317 -15.4831,-29.9434 7.7301,-51.0751 26.3083,-21.1316 24.7714,-22.8719 -20.1075,-5.2622 -57.2592,21.1316 -131.5415,15.8453 -139.2793,-12.3303 -3.0951,-12.3268 9.2717,-17.6252 32.4849,-15.8642 27.8559,3.5219 37.1608,-1.761 35.6133,-26.4146 -1.5477,-33.4584 -41.8019,-28.1772 -41.8019,7.0422 -1.5476,10.5658 -9.2747,1.7782 -20.1076,-17.5925 -17.023,-35.2194 -20.1136,-35.2298 -41.7793,-10.5762 -20.1181,24.6536 -18.5721,26.4301 6.1888,15.8643 17.0229,-8.8049 24.7441,-5.2916 21.649,8.7962 -12.3803,40.5024 -41.7823,33.4482 -52.6151,-10.5761 -4.6426,-24.6536 -17.005,-45.7801 -27.8377,-47.5411 -9.2853,0 -3.1042,-7.0336 13.9188,-15.8384 18.5706,-8.8049 21.6748,-15.8643 9.2944,-15.8643 -15.4755,-1.7609 -7.7378,-19.3569 23.2132,-56.3373 35.5936,-44.0243 38.6856,-51.0785 12.3774,-36.9907 -27.8559,15.8487 -38.7039,14.0964 -54.1793,-8.7963 -12.3804,-15.8487 -20.1196,-31.7146 -17.0246,-35.2366 15.4756,-24.6536 -1.5309,-22.8875 -21.649,5.2881 -23.2132,33.4585 -24.7744,33.4653 -13.9415,-1.7541 18.5706,-61.634 15.48,-68.6659 -18.566,-75.7097 -26.3083,-3.522 -35.5906,3.503 -35.5906,24.6346 0,17.6098 -4.6457,24.6554 -10.8358,19.3724 -4.6427,-7.0438 -20.1046,-1.7506 -32.4849,10.5762 -13.928,12.3268 -20.1318,12.3199 -13.9415,1.7541 4.6426,-10.5658 -7.7303,-28.1721 -30.9435,-40.4989 -30.951,-15.8488 -37.1471,-24.6639 -21.6717,-36.9907 13.9279,-8.8049 18.5615,-35.2212 13.9189,-72.2016 -6.1902,-44.0243 0.017,-65.1405 24.7774,-89.794 27.8558,-26.4146 29.4018,-29.9417 6.1886,-31.7027 -13.9279,0 -34.058,-14.0998 -43.3433,-29.9485 -13.9279,-28.1756 -15.468,-26.3974 -7.7302,8.822 9.2852,38.7414 -12.3729,54.585 -30.9435,21.1265 -4.6426,-8.8049 -18.5751,-17.6183 -27.8604,-17.6183 -10.8328,0 -9.2807,7.0525 4.6472,17.6183 13.9279,10.5658 15.4574,17.6183 4.6245,17.6183 -24.7607,0 -43.3252,-36.9873 -24.7546,-51.075 9.2852,-5.2829 10.8433,-26.4163 3.1057,-45.787 -6.1903,-19.3707 -12.3774,-28.1773 -12.3774,-19.3724 -1.5476,8.8048 -12.3971,5.2846 -24.7774,-7.0422 -15.4755,-15.84873 -23.2132,-15.84185 -23.2132,-1.7541 0,10.5658 7.7452,19.3724 15.483,19.3724 9.2853,0 15.483,12.3268 15.483,26.4146 0,17.6097 -13.946,26.3957 -41.8019,24.6347 -27.8558,-1.761 -34.0309,-5.2674 -15.4603,-10.5504 26.3083,-7.0439 26.3143,-8.8151 -1.5415,-36.9907 -34.0461,-35.21941 -52.6257,-103.89387 -32.5076,-119.74261 26.3083,-17.60971 13.9265,-45.79558 -17.0245,-36.99072 -15.4755,5.28292 -27.8664,0.009 -26.3189,-8.79626 1.5476,-10.56583 -4.6396,-21.13854 -12.3773,-24.66047 -9.2853,-5.28292 -17.0185,22.90294 -18.566,63.40528 -1.5477,38.74137 1.5399,68.66758 7.7301,68.66758 6.1902,-1.76098 21.6687,-1.76098 34.0491,0 18.5706,1.76096 17.0245,7.06452 -6.1888,21.15228 -40.2361,28.17552 -64.9894,-8.81001 -77.3697,-110.94635 -9.2853,-72.19984 -7.7317,-84.54039 21.6716,-102.1501 18.5706,-10.56583 37.1366,-15.83327 41.7793,-10.55035 4.6426,5.28291 32.506,-1.77646 61.9095,-15.86423 66.5445,-31.69743 74.2747,-31.68369 100.5829,-3.50818 10.8329,14.08776 40.2378,29.92103 63.451,36.96492 41.7838,10.56583 43.3328,8.80321 40.2378,-45.78701 -3.0951,-31.69748 -1.5476,-125.01686 0,-207.78257 4.6426,-126.78995 6.1916,-139.1167 17.0244,-79.24372 26.3084,163.77035 29.402,220.1129 6.1888,220.1129 -12.3804,0 -21.6717,8.80649 -21.6717,19.37231 0,10.56583 10.8328,15.86592 23.2132,8.82208 27.8558,-10.56583 30.9434,28.15661 7.7302,77.46385 -12.3804,28.17554 -12.3653,31.70435 7.7527,24.66047 12.3805,-7.04388 23.2133,-1.75065 23.2133,10.57614 0,10.56583 7.7226,14.07918 15.4604,8.79627 9.2853,-7.04388 15.483,12.31648 15.483,42.253 0,42.26331 -6.1826,54.60902 -30.9434,54.60902 -17.023,0 -30.966,8.80658 -30.966,19.37241 0,8.80486 7.7392,12.32508 17.0244,7.04216 7.7378,-7.04388 29.4035,1.7627 46.4265,19.37241 15.4755,15.84875 29.4019,22.88919 29.4019,14.08434 0,-8.80488 6.2038,-3.53054 13.9415,8.79626 10.8328,17.60969 6.1872,40.51099 -10.8359,70.44749 -13.9279,26.4145 -34.052,61.6271 -44.8848,80.9978 -9.2853,19.3707 -26.3053,33.4705 -35.5906,29.9485 -10.8328,-3.5219 -15.4785,5.2778 -10.8358,21.1265 4.6426,14.0878 1.5611,29.9279 -9.2717,35.2109 -13.928,5.2829 -12.3865,8.7962 1.5414,8.7962 13.928,1.761 15.48,10.583 4.6472,35.2366 -13.9279,28.1756 -12.3955,31.6786 15.4603,24.6347 26.3084,-8.8048 30.9616,-21.123 26.3189,-61.6254 -6.1901,-44.0243 -0.014,-56.3597 32.485,-70.4474 21.6657,-10.5659 32.5045,-21.1317 21.6717,-26.4146 -20.1182,-8.8049 10.8388,-88.0469 44.8848,-112.7005 27.8559,-21.13162 78.9144,-19.3706 66.5341,0 -4.6427,8.8049 4.6607,19.3776 18.5886,24.6605 23.2132,5.2829 21.6626,10.559 -10.8359,28.1687 -37.1411,19.3707 -37.1517,19.3741 -3.1056,12.3302 32.4985,-7.0439 35.5981,-3.5047 27.8604,35.2366 -9.2853,40.5024 -7.7317,42.2444 21.6716,24.6347 23.2132,-14.0877 40.2257,-12.3147 66.5341,3.534 18.5705,12.3268 41.7883,19.3793 51.0736,17.6183 9.2852,-1.7609 17.0244,8.7928 17.0244,22.8806 0,14.0878 -6.2037,26.4146 -13.9415,26.4146 -7.7377,0 -9.2672,8.8135 -4.6245,17.6183 6.1902,10.5658 17.017,14.0792 24.7548,8.7963 7.7376,-7.0439 13.9188,1.7506 13.9188,15.8384 0,17.6097 9.2898,22.9081 27.8604,15.8642 21.6656,-10.5658 23.2057,-7.0473 7.7301,14.0843 -26.3082,36.9804 32.5166,116.2224 65.0151,86.2859 13.9279,-14.0878 23.2057,-14.0878 30.9435,0 12.3804,22.8927 38.6961,22.8927 38.6961,0 0,-8.8048 -17.0304,-21.1248 -38.6961,-28.1686 -40.2363,-10.5659 -40.2288,-12.3372 -7.7303,-36.9908 41.7838,-33.4584 38.6797,-54.5849 -9.2943,-47.541 -29.4034,3.5219 -37.1336,-1.7559 -30.9433,-21.1265 4.6426,-14.0878 3.0844,-24.6605 -3.1057,-24.6605 -7.7378,0 -27.8559,-15.8402 -46.4264,-35.2108 -18.5706,-19.3707 -37.1367,-35.2367 -41.7793,-35.2367 -49.5215,1.761 -57.2547,-1.7558 -41.7792,-21.1265 7.7377,-12.3268 20.106,-42.2598 26.2962,-66.9134 10.8328,-38.7414 9.2883,-40.4972 -12.3774,-21.1265 -13.9279,14.0877 -27.8422,15.8539 -32.4849,5.288 -4.6426,-8.8048 -0.014,-21.1385 9.2717,-24.6604 15.4755,-7.0439 15.4755,-10.5762 0,-10.5762 -10.8328,-1.761 -15.4784,-8.80657 -10.8358,-19.3724 4.6427,-8.80486 3.0965,-17.59252 -6.1887,-17.59252 -9.2853,0 -12.3788,-12.33883 -6.1887,-29.94855 7.7378,-24.6536 12.3865,-22.88231 21.6717,10.57615 10.8328,29.93651 24.7502,36.97867 66.534,33.45674 29.4033,-1.76098 52.6211,-10.56756 51.0736,-19.37241 -1.5475,-8.80486 6.1856,-21.13166 18.566,-26.41457 12.3804,-5.28292 17.0261,0.003 10.8358,12.33024 -7.7376,12.3268 -1.5505,15.84013 12.3774,8.79625 27.8559,-12.32679 20.1347,-35.2177 -21.6491,-59.87131 -24.7607,-15.84874 -27.8679,-14.08433 -20.1301,12.33025 7.7377,21.13165 3.1102,26.42317 -15.4604,17.61831 -12.3804,-5.28292 -26.3234,-1.77645 -30.9661,10.55035 -3.0951,14.08777 -13.9203,12.3354 -30.9434,-8.79626 -35.5935,-38.74138 -34.0581,-44.02944 26.2963,-110.94636 34.046,-36.9804 46.4294,-61.63056 34.049,-66.91348 -10.8328,-5.28291 -35.586,14.07745 -54.1565,42.25299 -20.1182,28.17558 -47.9816,51.07506 -61.9095,51.07506 -23.2133,-1.76097 -23.1967,-1.76957 1.5642,-17.61831 23.2132,-15.84874 23.2072,-22.87544 1.5415,-70.42167 -12.3805,-29.93648 -26.3069,-52.8292 -29.4019,-52.8292 -4.6426,0 -4.6426,7.03367 0,15.83844 10.8328,17.60981 -29.4155,40.50927 -43.3435,24.66053 -4.6426,-7.04386 -9.2717,-22.89603 -9.2717,-38.74478 0,-24.65364 3.0967,-24.64677 17.0246,-1.75419 13.9279,22.89272 15.4618,22.89272 9.2717,0 -3.0951,-14.08768 -17.0155,-24.66038 -30.9434,-24.66038 -20.1181,1.76093 -24.7668,-12.33032 -21.6717,-65.15947 3.0951,-68.67788 26.3188,-98.6126 26.3188,-33.45669 0,19.37073 7.7393,35.21088 17.0246,35.21088 7.7378,0 12.3789,7.0593 6.1886,15.8642 -4.6426,8.80477 -1.549,21.13166 6.1888,26.41457 7.7377,7.04385 18.5645,-14.0964 24.7547,-44.03296 7.7377,-40.50225 13.9219,-49.31231 24.7547,-31.70263 7.7377,14.08781 13.9415,38.75347 13.9415,56.36315 0,15.84874 13.9143,45.78186 32.4849,66.91352 27.8558,31.69749 30.9615,31.68375 26.3189,3.50812 -3.0952,-21.13166 6.1826,-33.44296 30.9434,-36.96495 32.4985,-5.28291 49.5169,-38.74476 18.5661,-38.74476 -7.7378,0 -15.4605,-19.36043 -15.4605,-42.25301 0,-33.45842 6.1827,-40.50067 30.9434,-33.4567 24.7607,7.04384 30.9435,24.63119 30.9435,91.54815 1.5475,63.39498 4.6441,73.97454 17.0244,49.3209 9.2853,-15.84875 10.8314,-45.78861 6.1888,-65.15934 -12.3804,-44.02424 6.1901,-144.39962 23.2132,-132.07286 6.1901,5.28291 10.8479,28.1755 7.7527,52.82914 -1.5475,24.65365 3.0982,44.03283 10.836,44.03283 7.7376,0 9.2671,15.84016 4.6245,35.21089 -15.4756,54.59007 18.5811,42.25473 49.532,-17.61826 13.9279,-28.17563 34.0355,-52.82914 43.3208,-52.82914 7.7377,0 4.6502,-8.78773 -7.7302,-17.59263 -15.4754,-10.56583 -17.0336,-17.61826 -3.1057,-17.61826 23.2132,0 23.2132,-36.98898 0,-96.86197 -21.6656,-56.35113 -89.7471,-63.38639 -89.7471,-8.79632 0,19.37073 -7.7393,35.21089 -17.0246,35.21089 -9.2853,0 -13.937,-15.84703 -9.2943,-33.45683 7.7377,-35.21934 -37.1216,-54.5832 -126.8793,-54.5832 -21.6657,0 -51.0705,-8.81349 -63.4509,-17.61826 -17.023,-14.08781 -0.01,-15.84016 54.1566,-8.79631 142.3744,17.60967 239.8623,22.88915 239.8623,14.08438 0,-5.28292 -12.3683,-21.12308 -26.2963,-35.21089 -23.2132,-19.37073 -20.1226,-19.3776 18.5661,1.75406 55.7117,29.93656 147.0215,47.54451 167.1396,33.45683 9.2853,-5.28292 89.7592,-12.32346 179.517,-14.08438 l 164.034,-5.28807 -102.1472,21.12651 c -71.1871,14.08781 -100.5846,26.43002 -94.3943,42.27876 3.095,12.32676 1.543,52.82056 -4.6472,88.04004 -9.2853,52.82914 -12.3744,58.11034 -24.7548,33.4567 -9.2853,-15.84875 -10.8207,-40.50239 -3.0829,-52.82915 23.2132,-40.50239 17.0048,-65.14388 -18.5887,-75.70971 -24.7608,-7.04397 -46.4249,3.5064 -75.8284,36.96495 -38.6886,44.02424 -55.7056,91.57906 -24.7547,70.4474 10.8328,-7.04384 13.9204,21.12994 7.7303,86.28584 -6.1903,77.48279 -3.0816,98.61617 13.9415,98.61617 12.3803,0 26.3007,-12.31989 30.9433,-28.16864 12.3804,-36.9804 12.3759,-45.80247 -4.6472,-35.23664 -15.4754,10.56583 -10.8282,-89.79581 4.6472,-109.16654 18.5706,-21.13166 35.5921,33.44824 29.402,95.08216 -3.0952,33.45854 1.5505,59.8714 10.8358,59.8714 7.7377,0 13.9188,-5.28635 13.9188,-12.33032 -6.1901,-40.50226 4.6457,-70.42337 34.0491,-89.7941 29.4034,-21.13165 30.9675,-19.38433 24.7774,29.92283 -4.6427,29.93656 -0.014,56.3683 9.2717,61.65121 13.9279,8.80477 13.9279,14.08254 0,21.12651 -27.8559,14.08768 -24.7503,42.25301 3.1056,42.25301 12.3804,0 21.6551,-5.28634 20.1076,-12.33032 0,-8.80477 3.0875,-26.41114 7.7301,-40.49882 4.6427,-14.08782 12.388,-42.25473 15.4831,-61.62546 4.6426,-19.37073 7.7467,3.52885 9.2943,51.07508 1.5476,82.76555 3.0936,84.53168 29.4019,58.11721 15.4754,-17.6098 37.1411,-29.94857 46.4264,-29.94857 10.8328,0 18.566,-19.37932 18.566,-44.03283 0,-24.65365 10.8328,-49.30042 23.2133,-54.58334 12.3804,-7.04384 18.5615,-17.60967 13.9188,-26.41457 -4.6426,-8.80477 1.5672,-15.83844 12.4001,-15.83844 15.4754,0 15.4588,-3.53731 -1.5643,-15.8642 -12.3803,-8.80477 -17.0093,-28.1755 -9.2717,-52.82914 13.928,-51.06809 38.6737,-29.93815 38.6737,33.45683 0,40.50225 6.2052,49.31574 30.966,44.03282 20.1181,-3.52198 30.9434,3.52371 30.9434,19.37245 0,14.08768 13.9204,24.66038 30.9434,24.66038 17.023,0 30.966,8.78773 30.966,17.59263 0,10.56583 -17.0305,17.61826 -38.6962,17.61826 -21.6657,0 -38.6962,-10.55381 -38.6962,-22.88057 0,-12.32688 -13.9204,-22.90645 -30.9434,-22.90645 -27.8559,0 -27.8529,3.51855 10.8358,40.49896 47.974,49.30715 54.1521,49.31745 95.9359,10.57613 21.6657,-21.13166 35.6072,-54.59866 37.1547,-96.86198 4.6426,-86.28769 21.6627,-86.28082 35.5906,-1.75419 9.2853,52.82915 13.934,58.11721 21.6716,31.70264 7.7378,-22.89259 13.9113,-26.42487 21.6491,-10.57613 6.1902,10.56583 0.01,40.49895 -13.9189,66.91353 -20.118,35.21947 -21.6581,47.55138 -7.7302,58.11721 13.9279,10.56582 10.8299,17.61653 -10.8358,24.66051 -41.7838,15.84874 -44.8834,98.61608 -4.6472,98.61608 38.6887,0 51.0706,49.29862 17.0246,61.62541 -24.7608,8.80486 -26.3053,15.85559 -12.3774,51.07506 10.8328,24.65357 26.3038,38.73965 41.7793,33.45674 18.5705,-7.0439 18.5645,-5.29152 1.5414,8.79625 -24.7607,19.37069 -82.0199,7.05421 -69.6396,-15.83842 4.6426,-8.80489 1.5491,-15.86422 -6.1886,-15.86422 -9.2853,0 -12.3669,-17.61316 -9.2717,-38.74482 6.1901,-36.9804 6.1916,-36.95977 -6.1887,-5.26228 -7.7378,19.37069 -23.2162,35.21084 -34.0491,35.21084 -10.8328,0 -23.2177,10.57271 -27.8604,24.66048 -4.6426,17.60969 0,21.12821 18.5661,14.08433 15.4755,-7.04389 23.2147,-5.27776 17.0245,5.28807 -4.6426,10.56583 4.6427,17.59252 23.2132,17.59252 18.5706,0 29.3973,5.27947 24.7547,14.0843 -3.095,7.0439 20.1333,10.5899 54.1793,7.068 32.4985,-3.522 58.7872,-12.32852 57.2396,-19.37242 -3.095,-36.9804 4.6502,-77.49306 15.4831,-63.40528 18.5705,28.17554 49.5229,28.17554 40.2376,0 -6.1901,-15.84875 0,-26.41458 10.836,-26.41458 17.0229,0 17.0289,-5.29151 -1.5416,-17.6183 -20.1181,-14.08778 -18.5887,-17.59253 4.6245,-17.59253 13.9279,0 26.3189,-10.5727 26.3189,-24.66048 0,-14.08777 7.7393,-31.70093 17.0246,-38.74481 12.3803,-7.04388 13.9264,1.77301 6.1886,29.94855 l -12.3774,42.253 32.4849,-44.03288 c 21.6657,-29.93652 32.5015,-35.20224 34.0492,-17.59253 0,15.84875 7.7542,12.33025 24.7773,-14.08433 13.9279,-22.89262 21.6672,-56.36484 17.0245,-75.73557 -9.2852,-36.9804 27.8348,-47.55653 40.2151,-10.57613 6.1902,15.84875 12.3864,15.86763 21.6717,1.77995 6.1901,-10.56583 27.8558,-24.6588 46.4264,-31.70264 26.3084,-10.56583 34.0566,-7.04054 26.3189,12.33019 -3.0951,12.32676 1.5385,33.46013 13.9189,45.78702 18.5706,15.84862 24.7532,12.31113 30.9433,-15.8642 10.8329,-45.7853 41.8019,-45.7853 41.8019,0 0,19.37047 -10.8328,35.23657 -23.2132,35.23657 -24.7607,0 -61.9079,84.50772 -44.8848,103.87841 4.6426,5.28291 26.2961,10.57614 49.5093,10.57614 21.6657,1.76097 41.7838,10.5538 46.4264,22.88059 4.6427,15.84875 -12.3607,21.13338 -57.2396,19.37241 -34.046,-3.52195 -68.1026,-0.002 -72.7453,7.04217 -6.1901,7.04388 -3.0965,12.33024 6.1888,12.33024 10.8328,0 18.566,8.81345 18.566,17.61831 0,10.56583 -9.2687,17.61831 -21.6491,17.61831 -12.3804,0 -26.3068,10.55379 -29.4018,22.88059 -6.1903,15.84873 -12.397,14.08263 -24.7775,-5.28807 -9.2852,-14.08777 -17.0244,-19.35525 -17.0244,-10.55035 0,8.80485 10.8328,29.93825 23.2132,45.78695 21.6656,28.1756 20.1226,35.2212 -18.566,72.2016 -44.879,44.0243 -54.1612,133.8252 -12.3774,114.4545 10.8327,-3.5219 24.7592,3.5306 29.4018,17.6183 12.3804,38.7414 12.3834,42.253 -12.3773,42.253 -12.3804,0 -24.7533,12.3268 -30.9434,26.4146 -9.2853,29.9365 -86.6642,29.9365 -86.6642,0 0,-8.8049 -7.7392,-3.5323 -17.0245,15.8384 -13.9279,24.6536 -12.3924,35.2401 3.083,47.5669 12.3804,8.8049 13.9324,15.8384 4.6472,15.8384 -21.6656,0 -63.4539,-52.8377 -74.2868,-96.862 -4.6427,-22.8926 -6.1781,-17.6063 -3.083,12.3302 3.095,36.9804 -3.0981,49.3124 -34.0491,58.1173 -41.7838,12.3267 -80.477,-14.0861 -51.0736,-33.4568 9.2853,-7.0439 17.0246,-3.5305 17.0246,8.7963 0,14.0877 6.1901,14.0946 23.2132,-1.7541 32.4985,-29.9365 29.4109,-47.5548 -7.7303,-44.0329 -34.046,1.761 -92.8664,79.2437 -60.3679,79.2437 17.0231,0 75.8284,65.168 75.8284,82.7777 0,5.2829 -9.2807,5.2829 -18.566,0 -10.8329,-3.5219 -34.0507,-0.015 -51.0736,10.5504 -41.7838,24.6536 -136.1767,33.4619 -123.7963,12.3302 4.6427,-10.5658 -6.1841,-17.5925 -24.7547,-17.5925 -27.8558,0 -29.417,3.5219 -13.9415,26.4146 23.2132,31.6974 9.2853,79.2437 -23.2132,79.2437 -12.3804,0 -23.2132,8.8065 -23.2132,19.3724 0,10.5658 13.9264,15.8332 29.4019,10.5503 21.6657,-5.2829 27.8619,-1.7455 21.6717,15.8642 -9.2853,29.9366 -29.3929,31.6769 -43.3208,5.2623 -6.1902,-10.5658 -20.1272,-14.0791 -32.5076,-8.7962 -10.8328,5.2829 -17.0199,0 -12.3773,-12.3303 3.0951,-12.3268 -6.1842,-22.8995 -24.7548,-24.6604 -17.0229,-1.761 -30.9659,7.0576 -30.9659,22.9063 0,14.0878 6.1977,24.6605 15.483,24.6605 7.7377,0 10.8312,12.3268 6.1886,26.4146 -6.1901,14.0878 1.5552,29.921 15.4831,36.9649 13.9279,5.2829 24.7547,17.6286 24.7547,28.1945 0,8.8048 -6.1977,10.5452 -15.483,5.2623 -7.7378,-5.283 -15.4605,-3.5168 -15.4605,5.288 0,10.5659 -10.8493,22.8858 -24.7773,28.1687 -17.023,7.0439 -21.6506,1.7661 -15.4603,-21.1265 10.8328,-38.7414 -60.3664,-77.4742 -112.9831,-61.6254 -41.7838,12.3268 -95.9448,66.9032 -82.0169,82.7519 4.6426,5.2829 -4.6487,10.5761 -21.6718,10.5761 -29.4033,1.761 -29.4033,1.761 0,26.4146 24.7608,21.1317 34.0581,21.1437 43.3434,3.534 9.2853,-15.8488 12.3774,-14.1084 12.3774,5.2623 0,40.5023 -54.1732,86.3031 -78.934,68.6933 -18.5705,-14.0877 -18.5539,-19.3689 1.5641,-33.4567 20.1182,-14.0878 20.1182,-19.3862 0,-42.2788 -34.046,-36.9804 -100.598,-56.3511 -85.1226,-26.4146 4.6427,14.0878 -4.6486,5.3001 -21.6717,-17.5925 -18.5706,-22.8926 -32.4849,-33.4653 -32.4849,-24.6605 0,8.8049 7.7332,24.6382 18.566,36.965 13.928,15.8487 12.388,21.1522 -7.7301,21.1522 -13.9279,0 -26.3189,7.0267 -26.3189,17.5926 0,8.8048 27.8634,14.0981 61.9094,10.5761 34.0461,-3.5219 61.8869,-0.01 61.8869,8.7963 0,24.6536 -133.0876,38.7499 -168.6812,17.6183 -26.3082,-17.6097 -30.9509,-15.8505 -23.2132,7.0422 7.7377,21.1316 1.5597,24.6553 -26.2962,19.3724 -20.1182,-5.283 -40.2423,-8.7963 -44.8849,-8.7963 -4.6427,-1.761 3.1027,-8.8066 15.483,-19.3724 18.5705,-14.0878 18.566,-17.6286 -4.6472,-28.1945 -38.6887,-15.8487 -52.6151,5.2847 -29.4019,45.787 13.928,24.6536 13.9219,35.2366 1.5415,35.2366 -12.3803,0 -12.3863,8.8049 1.5416,26.4146 13.9279,17.6097 13.9445,26.4146 1.5641,26.4146 z m 246.051,-35.2366 c -7.7378,0 -10.8313,-12.3268 -6.1887,-26.4146 6.1902,-14.0878 12.3879,-26.4146 15.483,-26.4146 3.0951,0 6.1886,12.3268 6.1886,26.4146 0,14.0878 -6.1977,26.4146 -15.4829,26.4146 z m 146.2386,-17.8247 c -5.4164,-0.2201 -6.9594,-4.1737 -6.9594,-12.0981 1.5475,-36.9804 23.2087,-52.8343 41.7792,-31.7026 15.4755,17.6097 13.9234,24.6518 -4.6471,33.4567 -15.4755,7.0439 -24.7562,10.5641 -30.1727,10.344 z m 194.2292,-87.8336 c -7.7376,0 -15.4829,-7.0267 -15.4829,-17.5926 0,-8.8048 7.7453,-17.6183 15.4829,-17.6183 9.2853,0 15.4605,8.8135 15.4605,17.6183 0,10.5659 -6.1752,17.5926 -15.4605,17.5926 z m -525.1308,-17.9537 c 8.0707,-1.2017 15.9863,-6.2579 20.629,-15.5031 4.6427,-8.8048 -3.0906,-19.3586 -18.566,-22.8806 -17.0231,-5.2829 -29.4246,0 -29.4246,14.0844 0,14.0877 8.9135,22.461 19.3595,24.2219 2.6114,0.4403 5.312,0.478 8.0021,0.077 z m 401.1306,-0.077 c -23.7935,-0.8805 -47.785,-7.4876 -53.9752,-18.9338 -6.1901,-10.5659 -7.7363,-21.1386 -6.1886,-24.6605 23.2132,-22.8927 126.8882,1.7541 112.9603,28.1686 -5.4164,11.4463 -29.0029,16.3062 -52.7965,15.4257 z M 2135.01,1743.8991 c 7.7378,0 13.9189,-7.0524 13.9189,-17.6183 0,-8.8048 -10.8268,-17.5925 -24.7547,-17.5925 -12.3804,0 -18.5842,8.7877 -13.9415,17.5925 4.6426,10.5659 15.492,17.6183 24.7773,17.6183 z m -51.0736,-19.3724 c 1.5475,1.761 3.0831,-5.2794 3.0831,-14.0843 0,-15.8487 -63.448,-40.4955 -75.8284,-28.1687 -4.6426,7.0439 43.342,35.2091 72.7453,42.253 z m -332.5337,-5.2107 c -4.0623,-0.1926 -7.9221,-1.8435 -11.0172,-5.3654 -17.0231,-19.3707 -10.8419,-35.2109 13.9188,-35.2109 12.3805,0 23.2133,7.0405 23.2133,14.0844 0,14.528 -13.928,27.0698 -26.1149,26.4919 z m 538.7096,-47.5152 c 9.5064,-0.9882 13.5744,-4.9373 8.9316,-8.8995 -4.6426,-5.2829 -18.569,-7.0628 -29.4018,-1.7799 -12.3804,5.283 -7.7514,10.5762 9.2717,10.5762 4.2558,0.4402 8.0298,0.4326 11.1985,0.1032 z m -417.6111,-2.7344 c 1.3542,1.3208 7.1439,-0.8822 17.9767,-6.1651 15.4755,-5.2829 23.2313,-15.8436 18.5887,-21.1265 -4.6427,-5.2829 -17.0275,-0.022 -27.8604,12.3045 -6.964,8.8048 -10.059,13.6664 -8.705,14.9871 z m 400.2239,-30.8256 c 7.7377,0 18.5706,-7.0524 23.2133,-17.6183 4.6426,-8.8048 -4.6427,-17.5925 -23.2133,-17.5925 -18.5705,0 -27.8558,8.7877 -23.2132,17.5925 4.6427,10.5659 15.4755,17.6183 23.2132,17.6183 z m -111.0335,-1.754 c 2.7082,-0.8805 -1.1622,-7.9193 -11.2213,-21.1265 -9.2852,-14.0878 -12.3787,-29.9538 -6.1886,-35.2367 4.6426,-7.0439 3.0906,-12.3233 -4.6472,-14.0843 -7.7377,0 -27.8392,-3.5202 -44.8623,-7.0422 -17.0229,-5.2829 -44.8923,-3.5099 -60.3679,3.534 -29.4033,8.8049 -29.3973,10.5641 -1.5415,33.4567 15.4755,14.0878 40.2348,21.1214 52.6151,15.8385 13.9279,-3.522 35.5876,-0.01 47.968,8.7962 16.2492,11.4463 25.5375,16.7447 28.2457,15.8643 z m 513.1389,-9.9829 c 4.6419,-0.2948 8.1851,-0.9183 10.6998,-1.9089 10.0591,-3.9621 3.5016,-13.6578 -16.6165,-30.387 -20.1181,-17.6098 -38.7007,-19.369 -66.5566,-7.0422 -51.069,21.1317 -57.2578,19.3862 -29.4019,-10.5504 12.3804,-14.0877 32.4984,-26.4145 46.4264,-26.4145 12.3804,0 32.5105,-14.093 43.3434,-31.7027 29.4034,-47.5462 54.143,-59.8782 63.4283,-31.7026 4.6426,14.0878 -1.5324,22.8875 -15.4604,21.1265 -13.9279,0 -27.8709,7.0525 -30.966,17.6183 -3.0951,12.3268 9.2883,17.62 34.0491,10.5761 27.8558,-5.2829 37.1502,-15.8728 32.5075,-33.4825 -4.6426,-14.0878 -9.2943,-31.694 -9.2943,-40.4989 0,-7.0439 -21.6657,-17.6046 -46.4264,-21.1265 -34.0461,-5.2829 -44.8804,-1.7644 -40.2378,14.0843 4.6427,12.3269 -12.3804,24.6519 -46.4264,33.4568 -29.4034,5.2829 -49.505,17.6166 -44.8623,24.6605 12.3804,24.6536 -40.2437,40.504 -61.9094,19.3724 -34.046,-33.4585 -40.2348,10.5675 -6.1886,45.7869 18.5705,19.3707 66.5399,36.9701 111.4188,42.253 34.8198,4.6226 58.5474,6.7659 72.4733,5.8814 z M 2071.559,1603.03 c -7.7376,0 -15.483,-7.0525 -15.483,-17.6183 0,-8.8049 7.7454,-17.6183 15.483,-17.6183 9.2853,0 15.4605,8.8134 15.4605,17.6183 0,10.5658 -6.1752,17.6183 -15.4605,17.6183 z m 795.4378,-25.5375 c -2.3213,-0.8805 -1.5476,-11.448 0,-32.5797 0,-24.6536 6.1872,-40.5127 12.3773,-36.9907 6.1903,5.2829 24.7624,1.7696 40.2378,-8.7963 21.6657,-12.3268 32.4985,-8.8152 46.4264,15.8385 17.0231,31.6974 15.4634,33.467 -20.1301,17.6183 -30.951,-12.3268 -41.7748,-8.8032 -60.3453,19.3724 -10.8329,17.6097 -16.2447,26.418 -18.5661,25.5375 z m -980.5087,-33.9211 c 23.0686,-0.4141 29.1526,-3.0593 11.7427,-5.7008 -29.4034,-5.2829 -43.3434,-17.6062 -43.3434,-40.4989 0,-17.6097 -4.6457,-36.9769 -10.8359,-40.4989 -20.1181,-14.0878 -85.097,21.1282 -74.2642,40.4989 4.6427,8.8049 0,17.5926 -10.8358,17.5926 -13.9279,0 -15.4694,3.5185 -1.5415,14.0843 9.2853,7.0439 54.1566,14.1101 100.583,14.1101 11.2197,0.4403 20.8056,0.5508 28.4951,0.4127 z m 508.6278,-24.2219 c 42.7799,-1.8545 53.2588,-28.8101 4.5111,-39.5961 -23.2132,-5.2829 -41.7793,-17.6097 -41.7793,-26.4146 0,-10.5658 -6.1976,-15.8521 -15.4829,-12.3302 -7.7378,3.5219 -6.1918,-5.2915 6.1886,-17.6183 17.0231,-17.6097 21.6702,-17.6097 27.8604,0 9.2853,29.9365 35.5906,26.4352 35.5906,-5.2623 0,-14.0878 -10.8329,-26.4146 -23.2132,-26.4146 -12.3804,0 -23.2132,-8.8066 -23.2132,-19.3724 0,-8.8048 6.1977,-12.3251 15.483,-7.0421 9.2852,5.2829 10.8312,-1.7765 6.1886,-15.8643 -10.8328,-33.4584 -37.1321,-36.9855 -37.1321,-5.288 -1.5475,56.3511 -23.2253,66.9392 -89.7698,40.5247 -64.9969,-26.4146 -75.8343,-22.9047 -51.0735,22.8806 7.7377,14.0877 26.3189,19.381 49.5321,10.5761 21.6656,-5.2829 29.3988,-5.2967 18.566,3.5082 -12.3804,10.5658 -13.9158,22.8892 -3.083,40.4989 10.8327,21.1317 17.0049,22.9047 27.8377,3.534 9.2853,-19.3707 13.94,-15.8642 20.1301,10.5503 6.1903,22.8927 24.7594,38.7569 52.6152,42.2788 7.3508,0.8805 14.1321,1.1162 20.2436,0.8513 z m 396.0526,-4.3852 c 12.3804,0 23.2132,-3.5203 23.2132,-7.0422 0,-3.522 -10.8328,-10.5486 -23.2132,-17.5925 -12.3803,-5.283 -23.2132,-1.7627 -23.2132,7.0421 0,10.5659 10.8329,17.5926 23.2132,17.5926 z m -905.3151,-17.5926 c 7.7377,0 10.8314,-12.3268 6.1887,-26.4145 -6.1902,-14.0878 -12.3879,-26.4146 -15.4831,-26.4146 -3.095,0 -6.1886,12.3268 -6.1886,26.4146 0,14.0877 6.1977,26.4145 15.483,26.4145 z m 183.7562,-1.9862 c 8.1246,-0.6604 23.5985,-11.2193 46.8117,-31.4705 27.8559,-24.6536 30.9646,-33.4739 13.9415,-42.2788 -27.8558,-10.5658 -49.523,3.5237 -63.4509,45.787 -6.1902,19.3707 -5.4269,28.6226 2.6977,27.9623 z m -72.5413,-19.1661 c 2.9017,0.4403 8.705,-7.9054 20.3116,-24.6346 23.2132,-33.4585 23.2267,-33.4654 13.9415,1.754 -7.7378,28.1756 -6.1978,29.928 7.7301,8.7963 24.7608,-38.7414 20.1272,-52.8291 -13.9189,-52.8291 -21.6656,0 -30.9659,12.3302 -30.9659,38.7448 0,18.4902 0,27.7284 2.9016,28.1686 z m 897.5169,-30.7998 c 2.1235,-0.074 4.5202,-6.1754 8.0021,-16.7412 6.1903,-19.3707 10.8224,-19.3707 20.1077,0 10.8328,17.6097 17.0365,17.6097 37.1547,0 26.3082,-24.6536 34.049,-63.3967 10.8358,-45.787 -7.7378,5.2829 -18.5872,1.7696 -24.7773,-8.7963 -6.1903,-10.5658 -17.0171,-14.0792 -24.7548,-8.7962 -7.7377,7.0439 -13.9189,1.7627 -13.9189,-7.0422 0,-10.5658 -7.7452,-19.3724 -15.483,-19.3724 -9.2853,0 -13.937,21.1196 -9.2943,49.2952 4.6426,32.5779 7.3568,49.7508 10.0651,55.2539 0.677,1.3757 1.3551,2.0109 2.0629,1.9862 z m -344.8432,-0.877 c 7.7378,0 20.1122,-7.0525 24.7548,-17.6183 4.6427,-8.8049 3.0966,-17.6183 -6.1887,-17.6183 -7.7377,0 -20.1121,8.8134 -24.7547,17.6183 -4.6426,10.5658 -3.0966,17.6183 6.1886,17.6183 z m 237.8448,-4.798 c 2.5148,0.7154 6.2824,-0.5021 11.3119,-4.0241 9.2853,-5.2829 15.483,-24.6501 15.483,-40.4989 0,-26.4146 -3.1026,-26.4008 -15.483,-3.5082 -15.0886,26.4146 -18.8562,45.885 -11.3119,48.0312 z m 63.927,-12.8203 c 4.6426,0 12.3819,-7.0525 17.0245,-17.6183 4.6427,-8.8049 1.549,-17.5926 -6.1886,-17.5926 -9.2853,0 -17.0246,8.7877 -17.0246,17.5926 0,10.5658 3.0936,17.6183 6.1887,17.6183 z m -1131.9159,-0.3354 c 7.6301,-0.2584 18.6567,-3.6371 33.165,-10.2408 34.046,-14.0878 30.9463,-33.443 -4.6472,-36.9649 -17.0231,-1.761 -34.0537,8.7928 -38.6963,22.8806 -4.6426,13.2073 -3.485,21.1299 3.6724,23.5513 1.7894,0.6053 3.9627,0.86 6.5061,0.7738 z m 420.0366,-17.2829 c 3.0952,0 15.486,-14.0741 26.3189,-29.9228 20.1181,-28.1755 18.5661,-29.9348 -4.6471,-7.0422 -26.3084,22.8927 -34.0522,36.965 -21.6718,36.965 z m 501.3283,-7.9451 c 2.1055,-0.4135 4.7257,-1.2846 7.8208,-2.6053 12.3803,-5.2829 20.1257,-22.8961 15.483,-38.7448 -9.2853,-40.5024 -82.017,-81.0064 -82.017,-45.787 0,12.3268 13.9204,31.6872 30.9434,42.253 17.0231,10.5658 27.8559,26.4318 23.2132,35.2366 -2.3213,5.2829 -2.3318,8.3664 -0.204,9.467 1.064,0.5503 2.655,0.5941 4.7606,0.1805 z m -307.8697,-27.2658 c 3.095,0 1.5369,-38.7327 -3.1057,-88.04 -7.7378,-68.6778 -4.6291,-89.8233 13.9415,-102.1501 13.9279,-8.8048 24.7547,-22.8977 24.7547,-31.7026 -1.5476,-8.8049 9.2913,-14.0723 21.6717,-10.5503 12.3804,3.5219 21.6491,-8.8101 21.6491,-31.7027 0,-22.8926 9.2898,-35.2177 27.8604,-33.4567 15.4754,0 18.563,5.2932 7.7301,10.5761 -32.4985,14.0878 -23.2102,38.7345 10.8359,28.1687 17.0229,-5.2829 32.5076,-0.015 32.5076,10.5503 1.5475,10.5659 3.0995,29.952 4.6471,42.2788 1.5475,10.5659 -3.1042,24.6399 -9.2943,29.9228 -6.1903,5.2829 -4.6487,19.3689 1.5415,33.4567 9.2852,17.6097 21.6702,12.3251 51.0735,-19.3724 20.1181,-22.8926 26.3054,-29.9193 12.3774,-17.5925 -21.6657,17.6097 -24.7442,15.8401 -21.6491,-17.6183 1.5475,-22.8926 4.6246,-42.2651 4.6246,-45.787 1.5475,-1.761 15.4905,3.5185 30.966,14.0843 20.1181,12.3268 34.0476,12.3268 40.2377,0 4.6426,-8.8048 -1.5611,-17.5925 -13.9415,-17.5925 -13.9279,0 -24.7547,-7.0593 -24.7547,-15.8642 0,-8.8049 -15.4784,-21.1127 -34.049,-24.6347 -20.1182,-3.5219 -10.8374,-7.0679 18.566,-7.0679 29.4034,0 75.8449,-1.7473 100.6056,-3.5082 40.2363,-3.522 43.3163,-5.2847 15.4605,-19.3724 -24.7609,-12.3268 -26.2903,-15.8385 -4.6246,-15.8385 17.023,-1.7609 24.7502,-14.1049 20.1076,-35.2366 -4.6427,-24.65357 1.549,-31.67856 17.0245,-24.63468 12.3803,5.28291 21.6716,-0.0103 21.6716,-10.57614 0,-28.17554 66.5311,-54.5884 78.9114,-33.45674 4.6426,8.80485 13.94,3.5185 20.1302,-12.33024 7.7377,-24.65361 3.086,-28.17727 -32.5075,-19.37241 l -43.3209,10.57614 38.6737,-28.19445 c 21.6656,-14.08778 26.3052,-22.87547 12.3773,-17.59251 -13.9279,3.52193 -29.3837,-3.53055 -34.0264,-17.61833 -4.6426,-14.08777 -18.5796,-24.66047 -32.5075,-24.66047 -12.3804,0 -21.6718,-5.28636 -21.6718,-12.33024 4.6427,-33.45846 -3.0799,-47.52732 -15.4603,-24.63468 -13.9279,26.41453 -109.8774,12.3182 -109.8774,-17.61832 0,-8.80487 -6.1977,-15.83843 -15.483,-15.83843 -9.2853,0 -9.2853,15.83843 0,42.253 9.2853,29.93652 7.7333,45.78526 -4.6472,52.82914 -27.8558,12.3268 20.1302,45.78698 66.5566,45.78698 29.4035,0 34.031,-3.53054 15.4605,-17.6183 -18.5706,-14.08778 -18.5661,-17.60285 4.6471,-28.16868 46.4265,-19.37069 65.0061,19.37925 32.5076,70.44747 -29.4035,44.02426 -68.0982,61.62711 -68.0982,28.16866 0,-35.21944 -49.5291,-15.84358 -85.1226,31.70265 -32.4985,44.02428 -97.4939,73.94528 -75.8283,36.96488 3.0951,-7.0439 -3.086,-15.8504 -13.9189,-19.3724 -17.023,-3.52191 -13.9415,-14.0843 9.2717,-40.49887 17.023,-19.37069 26.3204,-24.65704 20.1302,-12.33024 -6.1902,10.56583 -4.6547,21.15229 3.083,21.15229 18.5706,0 37.1517,-51.07677 26.3189,-70.44746 -4.6426,-8.80486 -18.563,-12.33196 -30.9434,-5.28807 -17.023,5.28291 -20.1317,1.77817 -13.9415,-17.59252 6.1902,-17.60971 0.01,-26.42145 -20.1076,-24.66047 -18.5705,3.52193 -26.3083,-7.05593 -23.2132,-29.94857 4.6427,-24.65356 -1.5595,-29.93135 -20.1301,-21.12649 -13.9279,5.28291 -30.9359,10.57614 -38.6737,10.57614 -6.1901,0 -17.029,12.31993 -21.6716,28.16867 -6.1903,17.60971 -1.5386,24.64845 9.2943,21.1265 26.3083,-10.56583 51.0615,21.14714 54.1566,68.69337 1.5476,26.41457 -4.6547,35.21255 -20.1302,28.16867 -12.3804,-5.28292 -21.6491,-0.0155 -21.6491,10.55035 0,10.56583 6.1812,19.3724 13.9189,19.3724 7.7378,0 17.0351,22.9064 20.1302,49.321 6.1902,45.7852 3.0739,47.5513 -29.4245,31.7026 -20.1181,-10.5658 -35.5905,-29.952 -35.5905,-42.2788 0,-15.8487 -7.7363,-17.6149 -29.402,-5.2881 -23.2132,14.0878 -34.049,10.5848 -57.2622,-24.63465 -29.4034,-44.02428 -80.4528,-63.4156 -57.2396,-21.15229 27.8558,51.06814 13.9128,61.64774 -30.9661,22.90639 -43.3313,-35.21944 -54.1657,-36.989 -86.6642,-17.61832 l -37.1321,21.12647 52.6152,29.9486 c 43.3313,22.8926 47.9739,22.8857 23.2132,1.7541 -35.5936,-33.45847 -24.7714,-52.81369 20.1075,-36.96495 18.5706,7.04385 27.8725,22.88235 24.7773,42.25295 -4.6426,26.4146 7.7197,36.9822 51.051,45.787 30.951,7.0439 47.9816,17.6046 38.6963,21.1265 -27.8559,10.5659 -24.7503,40.4989 3.1056,40.4989 12.3804,0 23.2071,5.2795 24.7548,14.0844 7.7376,121.507 6.1977,147.9285 -7.7303,156.7333 -12.3804,8.8049 49.5186,52.8343 82.0171,58.1172 z m 396.166,0 c 10.8328,0 18.566,-22.8995 18.566,-51.075 0,-33.4585 -7.7332,-47.5359 -18.566,-42.253 -10.8328,3.5219 -23.2178,-5.2847 -27.8604,-19.3724 -7.7378,-19.3707 0.012,-28.1687 20.1301,-28.1687 34.0462,0 43.3284,-33.4688 12.3774,-36.9907 -15.4754,0 -15.4754,-3.5323 0,-10.5762 9.2853,-3.5219 15.4619,-15.8298 9.2717,-24.6346 -4.6426,-8.8049 1.5672,-17.6184 12.4001,-17.6184 10.8328,-1.7609 -4.6457,-8.8014 -34.0492,-14.0843 -69.6396,-15.8487 -99.058,-5.276 -77.3923,24.6605 13.9279,17.6097 10.8297,21.1213 -10.836,15.8384 -18.5705,-5.2829 -34.046,7.0542 -46.4264,36.9907 -15.4754,38.7414 -13.9249,44.0071 10.836,44.0071 15.4754,0 32.512,12.3457 37.1547,28.1945 6.1901,17.6097 18.5736,24.6364 34.049,17.5925 17.023,-7.0439 23.2147,-3.5254 17.0245,14.0843 -9.2852,26.4146 17.0124,63.4053 43.3208,63.4053 z m 108.9025,-1.5477 c 8.3181,0.6604 18.7641,-9.0301 31.9182,-28.4008 27.8558,-42.2633 26.3204,-58.0915 -3.083,-58.0915 -13.9279,0 -20.1317,8.7929 -13.9415,22.8806 6.1902,10.5659 0,7.0525 -10.8359,-8.7962 -15.4754,-19.3707 -29.3867,-24.6571 -44.8622,-12.3303 -12.3804,8.8049 -13.9324,15.8385 -4.6471,15.8385 10.8327,0 21.6535,15.8659 26.2961,35.2366 4.6426,22.0121 10.8374,33.0027 19.1554,33.6631 z m 570.3785,-33.7405 c -9.4758,0.6191 -24.4675,-8.7275 -37.0414,-26.3372 -15.4755,-21.1316 -24.7789,-22.8909 -41.8019,-7.0421 -10.8328,12.3268 -24.7592,15.8332 -29.4019,10.5503 -12.3804,-12.3268 49.5261,-49.29 74.2868,-44.0071 21.6657,5.2829 43.3434,31.6906 43.3434,54.5833 0,7.9243 -3.6996,11.8814 -9.385,12.2528 z m -1845.7674,-1.5993 c 9.5063,-0.9881 13.5743,-4.9373 8.9317,-8.8995 -4.6427,-5.2829 -18.5917,-7.037 -29.4246,-1.754 -12.3803,5.2829 -7.7286,10.5503 9.2943,10.5503 4.2558,0.4402 8.0298,0.4326 11.1986,0.1032 z m 324.8035,-2.9665 c 9.092,0.6604 19.9248,-9.4618 26.1149,-30.5934 4.6426,-12.3268 0.014,-17.5943 -9.2717,-10.5504 -9.2853,5.2829 -20.1181,-0.01 -23.2132,-10.5761 -4.6426,-12.3268 -9.2943,-3.5134 -9.2943,17.6183 -0.7737,22.0121 6.5725,33.4412 15.6643,34.1016 z m -62.0908,-48.186 c 7.7378,0 13.9415,-7.0593 13.9415,-15.8642 0,-21.1316 -30.9689,-44.0294 -41.8018,-31.7026 -10.8328,12.3268 9.2898,47.5668 27.8603,47.5668 z m 1107.8413,-8.564 c 15.7906,-0.6825 34.8743,-14.6674 41.9833,-35.4688 3.0952,-12.3268 -1.5384,-28.1739 -13.9189,-33.4568 -24.7607,-10.5658 -60.3483,33.4636 -47.9678,58.1172 3.095,5.7232 7.8374,9.0285 13.3747,10.2666 2.0766,0.4644 4.273,0.6392 6.5287,0.5418 z m -524.224,-10.602 c 2.5147,-1.5408 -1.7259,-9.8986 -12.5588,-24.8668 -10.8328,-15.8488 -23.2117,-22.9013 -29.4018,-17.6183 -4.6427,5.2829 1.5384,17.6097 13.9189,26.4145 16.2492,12.3268 25.5269,17.6115 28.0417,16.0706 z m -529.438,-16.0706 c 3.0952,0 6.1887,-7.0267 6.1887,-17.5925 0,-8.8048 -7.7392,-17.6183 -17.0245,-17.6183 -7.7378,0 -10.8314,8.8135 -6.1887,17.6183 4.6426,10.5658 12.3819,17.5925 17.0245,17.5925 z m 1149.8246,0 c 9.2853,0 20.112,-7.0267 24.7547,-17.5925 4.6426,-8.8048 -1.5385,-17.6183 -13.9189,-17.6183 -13.9279,0 -24.7773,8.8135 -24.7773,17.6183 0,10.5658 6.2037,17.5925 13.9415,17.5925 z m -856.2817,-16.9992 c 1.7037,0.2073 3.5741,-0.1513 5.5086,-1.0318 7.7376,-3.522 16.6436,-15.4085 21.2863,-33.0182 6.1901,-26.4146 -0.015,-31.7164 -30.9661,-28.1945 -43.3313,5.2829 -68.0845,26.4146 -30.9433,26.4146 15.4754,0 26.3188,8.8134 26.3188,17.6183 0,11.8865 3.6845,17.5896 8.7957,18.2116 z m -200.69,-0.5933 c -3.0952,0 -13.9446,-12.3268 -24.7774,-26.4146 -10.8329,-15.8487 -12.3683,-26.4145 -3.083,-26.4145 7.7377,0 18.5645,12.3268 24.7547,26.4145 4.6426,14.0878 6.2008,26.4146 3.1057,26.4146 z m 1132.8,0 c 9.2852,0 21.6536,-8.8066 26.2962,-19.3724 17.023,-29.9365 -1.5476,-36.9787 -23.2132,-7.0422 -12.3804,15.8488 -12.3683,26.4146 -3.083,26.4146 z m 245.6202,-26.8273 c -14.7713,0.6088 -25.8656,-1.8057 -25.8656,-8.4093 0,-7.0439 18.5721,-21.13 40.2378,-33.4568 43.3313,-21.1316 80.4589,-8.8031 55.6981,19.3724 -10.6394,12.1067 -45.4517,21.4791 -70.0703,22.4937 z m -1685.9726,-3.4566 c 9.795,0.6621 22.1176,-0.096 34.2078,-1.8573 24.1804,-3.5219 47.4011,-11.0095 47.4011,-18.9338 0,-7.0439 -24.7758,-8.8101 -54.1791,-5.2881 -29.4035,3.5219 -51.0691,12.3285 -46.4265,19.3724 1.9344,3.9622 9.2018,6.0447 18.9967,6.7068 z m -282.0722,-3.1728 38.6962,-26.4146 c 21.6657,-14.0878 41.7672,-21.1403 44.8623,-17.6183 9.2853,10.5658 -1.5309,19.3758 -44.8623,31.7026 z m 663.8887,-1.7799 c 4.6427,0 12.3819,-7.0267 17.0246,-17.5925 4.6426,-8.8049 1.549,-17.6184 -6.1888,-17.6184 -9.2853,0 -17.0244,8.8135 -17.0244,17.6184 0,10.5658 3.0935,17.5925 6.1886,17.5925 z m 1412.9226,0 c -1.5475,0 -15.4679,-21.1145 -30.9433,-44.0071 -15.4756,-24.6536 -20.1212,-44.0329 -10.8359,-44.0329 26.3083,0 17.02,-49.2969 -10.8358,-68.6676 -23.2132,-14.0877 -17.0306,-17.6114 30.9434,-19.3724 40.2362,0 57.2622,-7.0439 57.2622,-26.41455 0,-14.08776 10.8328,-26.41457 23.2132,-26.41457 20.1181,0 21.6582,7.03529 7.7303,35.21082 -9.2853,19.3707 -23.1997,35.2108 -32.4849,35.2108 -9.2853,0 -10.8375,10.5796 -4.6472,22.9064 9.2853,17.6097 6.1871,17.6097 -10.8359,0 -26.3083,-29.9365 -49.5185,-29.9296 -35.5905,-1.7541 10.8328,21.1317 26.3097,137.3352 17.0244,137.3352 z m -577.2471,-17.5925 c 3.0951,0 9.2928,-12.3268 15.483,-26.4146 4.6426,-14.0878 1.5491,-26.4146 -6.1887,-26.4146 -9.2853,0 -15.483,12.3268 -15.483,26.4146 0,14.0878 3.0936,26.4146 6.1887,26.4146 z m 420.9434,-17.6184 c -4.6426,0 -12.3819,-7.0524 -17.0245,-17.6183 -4.6427,-8.8048 -1.5491,-17.5925 6.1886,-17.5925 9.2853,0 17.0246,8.7877 17.0246,17.5925 0,10.5659 -3.0937,17.6183 -6.1887,17.6183 z m 51.0736,-17.6183 c -9.2853,0 -4.6502,-12.3199 7.7301,-28.1686 13.9279,-14.0878 20.1258,-35.2212 15.4831,-45.787 -6.1903,-12.3268 -3.0966,-14.0861 6.1887,-7.0422 21.6657,14.0878 -3.0937,80.9978 -29.4019,80.9978 z m -1190.0623,-17.5925 c 9.2852,0 15.4604,-3.5202 15.4604,-7.0422 0,-5.2829 -6.1752,-14.0894 -15.4604,-19.3724 -7.7377,-5.2829 -15.483,-1.7627 -15.483,7.0422 0,10.5658 7.7453,19.3724 15.483,19.3724 z m 160.9283,0 c -20.1181,0 -20.1015,-3.5408 1.5641,-28.1944 13.9279,-15.8488 27.8423,-24.6554 32.4849,-19.3724 13.9279,15.8487 -9.2883,47.5668 -34.049,47.5668 z m -458.2115,-0.5417 c -13.9858,0.445 -29.1616,-6.7429 -36.9961,-20.6106 -7.7377,-14.0878 -3.1041,-15.8401 13.9189,-8.7962 15.4755,5.2829 26.3189,3.5236 26.3189,-7.0422 0,-10.5658 7.7453,-12.3251 15.483,-7.0422 9.2852,7.0439 12.3728,19.3638 7.7302,28.1687 -5.4165,10.0155 -15.5771,14.9764 -26.4549,15.3225 z m 154.3316,-18.8307 c 3.6753,0 2.1097,-5.2984 -4.0804,-15.8642 -4.6427,-8.8049 -18.5525,-17.5925 -27.8378,-17.5925 -10.8329,0 -9.3034,7.0267 4.6246,17.5925 14.7016,10.5658 23.6181,15.8642 27.2936,15.8642 z m 1107.9093,-3.4308 c 11.534,0.3302 25.4574,-18.1497 25.4574,-40.6021 0,-21.1316 -3.0785,-21.1179 -21.6491,-3.5082 -12.3804,12.3268 -18.5841,28.1601 -13.9415,36.965 2.7082,4.8426 6.2885,7.0353 10.1332,7.1453 z m -1605.6559,-12.4334 c 3.0952,0 6.1888,-7.0267 6.1888,-17.5925 0,-8.8049 -7.7393,-17.6183 -17.0246,-17.6183 -7.7377,0 -10.8313,8.8134 -6.1886,17.6183 4.6426,10.5658 12.3818,17.5925 17.0244,17.5925 z m 50.6883,-8.1256 c 6.5771,-2.4213 15.0991,-15.6493 20.5156,-37.6614 3.095,-12.3268 -1.5567,-24.6536 -9.2944,-26.4146 -7.7377,-3.5219 -17.0351,12.3372 -20.1302,36.9908 -2.3213,21.1316 2.3319,29.5066 8.909,27.0852 z m -129.6222,-15.0903 c 1.2576,0.3303 2.3319,-0.098 3.1057,-1.4188 4.6426,-3.5219 0.014,-22.915 -9.2717,-40.5247 -18.5706,-35.21943 -21.6808,-24.633 -7.7529,21.1523 4.6428,11.8866 10.1463,19.8001 13.9189,20.7912 z m 1091.0434,-29.6133 c -29.4034,0 -32.5166,-5.2777 -18.5887,-21.1265 13.9279,-15.8487 23.2268,-15.8487 37.1547,0 13.9279,15.8488 10.8375,21.1265 -18.566,21.1265 z M 1513.5807,1028.9 c 2.7084,0.1366 5.1156,-0.4076 7.0501,-1.7283 6.1901,-5.2829 3.0799,-15.8298 -7.7529,-24.6347 -34.046,-22.89261 -47.9618,-19.37926 -26.2962,8.7963 8.1247,10.5658 18.8735,17.1569 26.999,17.5667 z m 749.8727,-6.9906 c 4.6427,0 12.3819,-7.0525 17.0245,-17.6183 4.6426,-8.80485 1.5491,-17.6183 -6.1886,-17.6183 -9.2853,0 -17.0246,8.81345 -17.0246,17.6183 0,10.5658 3.0936,17.6183 6.1887,17.6183 z m -443.4992,-2.4505 c -4.303,-0.1746 -14.8619,-4.939 -33.1423,-13.4137 -18.5706,-8.80485 -23.2268,-17.5908 -13.9415,-24.63468 9.2853,-7.04388 24.7577,-0.003 35.5906,14.08433 12.1869,16.83925 17.0256,24.18845 11.4932,23.96405 z m 31.3742,-6.939 c -0.7589,0.1307 -1.5976,0 -2.5164,-0.3612 -5.5131,-2.1462 -13.6377,-12.71198 -21.7623,-27.23999 -15.4756,-28.17554 -29.4186,-33.44643 -77.3925,-22.8806 l -57.2622,12.30445 38.6961,-36.96492 38.6962,-38.74482 -51.0736,19.37241 c -46.4264,17.60971 -97.4939,3.52538 -52.615,-14.08433 9.2853,-5.28291 18.566,-19.38788 18.566,-35.23663 0,-21.13166 -3.0891,-21.11278 -24.7547,1.7799 -26.3083,31.69747 -58.8234,21.13509 -47.9906,-14.08435 4.6426,-12.32679 1.5657,-33.47909 -4.6245,-47.56686 -18.5706,-33.45846 15.4785,-79.23855 34.0491,-47.54108 9.2853,15.84875 12.3667,12.32337 9.2717,-12.33023 -3.0951,-21.1316 -15.462,-33.44475 -32.4849,-29.92277 -32.4985,5.28292 -35.5982,-24.66394 -4.6472,-36.9907 13.9279,-7.04384 24.7592,-42.25301 29.4019,-95.08216 l 4.6471,-84.53178 3.0831,84.53178 c 3.095,68.67789 7.7362,84.52663 29.4019,79.24372 13.9279,-3.52199 27.8709,-24.6485 30.966,-47.54108 7.7377,-63.39497 15.4755,-63.41386 23.2132,-1.77982 6.1902,40.50226 0,58.10863 -17.0245,66.9134 -41.7838,17.6098 -66.5491,79.25234 -27.8604,70.44748 9.2853,-1.76097 43.3192,1.75238 72.7227,8.79626 44.8788,10.56583 55.7087,21.13684 58.8037,58.11721 1.5476,24.65361 -3.092,40.50063 -12.3773,33.45675 -9.2853,-5.28291 -15.4605,-22.8772 -15.4605,-36.96492 0,-14.08778 -12.3908,-24.66049 -26.3188,-24.66049 -20.1181,0 -21.6581,5.27775 -7.7302,21.1265 10.8328,12.32681 18.5661,36.9924 18.5661,56.36314 0,19.37067 18.566,56.35624 41.7792,84.53178 21.6657,26.41457 37.1441,52.81535 34.049,56.33735 -0.5803,0.6603 -1.2591,1.0559 -2.0174,1.1866 z m 1558.8439,-8.2288 c -13.9279,0 -18.5615,-10.56582 -13.9188,-26.41456 6.1901,-14.08778 15.4754,-26.41457 23.2132,-26.41457 7.7376,0 13.9188,12.32679 13.9188,26.41457 0,14.08778 -10.8329,26.41456 -23.2132,26.41456 z m -1126.634,-35.18502 c 2.9258,-1.12812 4.6698,-4.00519 4.6698,-8.84785 0,-3.52195 -15.4784,-17.60284 -34.049,-28.16867 -32.4985,-19.37069 -34.0371,-19.37241 -13.9189,7.04217 15.0886,21.13165 34.5206,33.35867 43.2981,29.97435 z m -150.0924,-0.0258 c 9.2853,0 15.483,-7.05932 15.483,-15.86423 0,-10.5658 -6.1977,-22.88574 -15.483,-28.16865 -7.7378,-5.28292 -15.4605,1.75065 -15.4605,15.83842 0,15.84875 7.7227,28.19446 15.4605,28.19446 z M 3207.17,965.90744 c 1.0633,0.30395 2.2171,-0.35426 3.3778,-2.11523 4.6426,-5.28291 6.1841,-21.12994 1.5415,-33.45674 -4.6427,-14.08777 -9.2717,-8.82034 -9.2717,10.55035 -1.1607,14.52801 1.1627,24.10975 4.3524,25.02162 z M 1311.7119,951.46197 c 9.2853,0 17.0245,-7.05248 17.0245,-17.61831 0,-8.80486 -3.0935,-17.59253 -6.1887,-17.59253 -4.6426,0 -12.3819,8.78767 -17.0245,17.59253 -4.6427,10.56583 -1.5491,17.61831 6.1887,17.61831 z m 1666.7038,-10.57615 29.4019,-59.8713 c 17.023,-31.69749 40.2408,-61.61857 51.0735,-63.3795 10.8328,-1.76101 12.385,-0.0137 4.6472,3.50817 -9.2853,5.28296 -12.3895,19.38274 -9.2943,29.94857 4.6426,12.32679 -12.3835,36.96664 -34.049,56.33733 z m -635.4615,-1.31557 c 11.7999,-0.44024 22.6238,-8.35085 22.6238,-23.31912 0,-7.04388 -12.3789,-17.62347 -29.402,-22.90638 -21.6656,-5.28292 -26.2916,0.007 -21.649,24.66048 3.8689,14.96825 16.6271,22.00527 28.4272,21.56502 z m -525.1989,-23.31912 c -4.6426,0 -12.3819,-7.05248 -17.0245,-17.61831 -4.6427,-8.80486 -1.5491,-17.6183 6.1886,-17.6183 9.2853,0 17.0246,8.81344 17.0246,17.6183 0,10.56583 -3.0937,17.61831 -6.1887,17.61831 z m 1515.4325,-9.02841 c 19.1509,-2.64145 27.8604,-31.04228 10.4505,-61.41904 -15.4755,-29.93652 -15.4875,-35.21084 3.083,-35.21084 38.6887,0 41.7989,-29.93831 7.7529,-72.20151 -17.0231,-22.89272 -27.8619,-31.6992 -21.6717,-19.37245 7.7377,19.37073 -9.2808,29.92453 -41.7793,22.8806 -7.7377,0 -12.3774,7.05249 -12.3774,17.61832 0,10.56583 13.9204,15.85906 30.9435,10.57614 32.4985,-8.80486 41.7747,12.30617 13.9188,31.67686 -9.2852,7.04388 -12.3728,22.90294 -7.7302,36.99071 4.6426,12.3268 -0.01,28.16695 -9.2943,35.21083 -10.8328,7.04389 -9.2808,15.84875 4.6471,26.41457 8.1247,5.72318 15.6735,7.71629 22.0571,6.83581 z M 1553.1157,896.87874 c 7.7377,0 6.2022,-5.29324 -3.0831,-10.57616 -10.8327,-3.52193 -20.1301,-17.60283 -20.1301,-28.16866 0,-12.32681 -17.008,-29.952 -38.6737,-42.27879 -21.6656,-10.56583 -38.6962,-14.07918 -38.6962,-8.79627 1.5476,19.37069 46.4265,82.7691 46.4265,65.15939 0,-8.80486 7.7332,-7.03873 18.566,5.28808 10.8328,12.3268 26.3053,21.13334 35.5906,19.37241 z m 506.3153,-15.55469 c 2.904,0.88899 5.5495,0.85642 7.6169,-0.25795 2.7566,-1.48582 4.5111,-4.87881 4.5111,-10.60193 0,-5.28296 -10.8328,-21.14887 -23.2132,-35.23663 -24.7607,-29.93652 -27.8694,-24.64501 -13.9415,17.6183 5.223,14.8582 16.3151,25.81128 25.0267,28.47821 z m 131.2771,-2.06363 c 1.5475,1.76096 0,-10.57271 -4.6471,-24.66048 -6.1902,-14.08777 -24.7502,-26.41457 -43.3208,-26.41457 -30.9509,0 -30.9525,1.76785 6.1887,24.66047 21.6657,14.08778 40.2317,24.65361 41.7792,26.41458 z m 1055.4302,-16.50911 c 7.7378,-0.66037 17.023,-9.91406 23.2132,-27.52377 6.1903,-15.84875 6.2008,-33.44299 3.1057,-36.96493 -12.3804,-14.08777 -40.2378,14.08433 -40.2378,40.4989 0,16.72924 6.1812,24.65016 13.9189,23.9898 z m -948.6358,-34.56594 c 3.0951,0 6.1886,-7.0267 6.1886,-17.59253 0,-8.80485 -7.7392,-17.61831 -17.0245,-17.61831 -7.7377,0 -10.8313,8.81346 -6.1887,17.61831 4.6426,10.56583 12.3819,17.59253 17.0246,17.59253 z m -1042.1461,-0.54171 c 0.8258,0.33642 1.7501,0.21496 2.7656,-0.33535 4.0623,-2.2012 9.4773,-11.44287 14.8936,-27.29161 4.6427,-14.08778 3.0967,-21.12134 -6.1886,-15.83843 -9.2853,5.28291 -15.483,17.60284 -15.483,28.16867 0,9.2451 1.5349,14.28747 4.0124,15.29672 z m 1192.2385,-1.21239 c 4.2558,1.76097 6.2114,-5.27775 6.2114,-21.12649 0,-12.32681 -9.2913,-31.70609 -21.6718,-44.0329 -24.7607,-26.41456 -26.3128,-14.08945 -4.6471,33.45674 9.2853,19.3707 15.8518,29.94168 20.1075,31.70265 z m -314.9198,-16.94763 c 8.8984,-0.22012 21.6808,-8.57614 42.5727,-25.30537 38.6886,-31.69749 32.4789,-88.05197 -12.4001,-91.57396 -17.023,-1.76093 -26.2917,3.50653 -21.6491,10.55038 3.0952,8.8049 -3.1025,24.66394 -15.4829,36.9907 -10.8328,10.56583 -17.0201,31.6992 -12.3774,45.78698 5.4164,15.84874 10.4384,23.7714 19.3368,23.55127 z m 803.9614,-16.50911 c -7.7378,0 -10.8314,-7.05248 -6.1888,-17.6183 4.6427,-8.80487 12.3819,-17.59253 17.0246,-17.59253 3.0951,0 6.1886,8.78766 6.1886,17.59253 0,10.56582 -7.7391,17.6183 -17.0244,17.6183 z m 137.0802,-47.928 c -4.1045,0.34738 -8.0671,-0.0464 -11.7425,-1.36716 -24.7608,-10.5658 -61.8869,-47.55651 -61.8869,-63.40525 0,-5.28291 12.3623,-5.28291 27.8378,0 20.1182,7.04384 18.5781,1.75406 -7.7301,-24.66051 l -34.0492,-33.4567 72.7453,-1.75419 c 57.2593,0 65,3.51855 34.0491,14.08438 -35.5935,12.32676 -35.592,14.07751 -6.1887,15.83844 18.5706,1.76093 37.1366,12.32676 41.7793,26.41457 9.4787,26.19441 -26.0816,65.87476 -54.8141,68.30642 z m -438.8519,-4.90114 c 4.6426,0 12.3818,-7.05243 17.0244,-17.61826 4.6427,-8.8049 1.5492,-17.59263 -6.1886,-17.59263 -9.2853,0 -17.0246,8.78773 -17.0246,17.59263 0,10.56583 3.0936,17.61826 6.1888,17.61826 z m 568.3381,-9.98286 c -5.739,0.42131 -14.0276,-5.64572 -28.2457,-16.43171 -44.8789,-35.21948 -37.1442,-89.82157 12.3774,-82.77773 47.9739,8.80491 46.4355,5.30009 32.5075,61.65122 -6.0934,25.75421 -9.2603,37.01659 -16.6392,37.55822 z m -506.4514,-28.7619 c 1.5475,-3.52199 10.8449,-17.61496 20.1302,-31.70264 15.4755,-22.89272 12.3834,-28.16876 -12.3773,-28.16876 -15.4756,0 -29.402,1.77307 -29.402,3.534 0,10.56583 20.1016,59.85925 21.6491,56.3374 z m -518.4208,-31.70264 c 9.2853,0 17.0246,-7.0268 17.0246,-17.59263 0,-8.80477 -3.0936,-17.61826 -6.1886,-17.61826 -4.6427,0 -12.382,8.81349 -17.0246,17.61826 -4.6427,10.56583 -1.549,17.59263 6.1886,17.59263 z m 1110.9244,-0.5934 c -14.1388,-0.73129 -28.6161,-7.43597 -35.3866,-20.53311 -7.7378,-14.08781 0.01,-15.83329 21.6717,-10.55037 18.5706,7.04384 30.9449,3.5167 24.7547,-5.28807 -4.6426,-8.8049 0.015,-15.8642 7.7529,-15.8642 9.2853,0 17.0244,12.32676 17.0244,26.41458 0,17.82983 -17.6387,26.76152 -35.8171,25.82117 z m -669.3521,-2.52788 c -3.5952,0.60912 -6.4258,-9.30876 -5.1685,-25.04748 0,-19.3706 4.6517,-24.66382 9.2943,-10.57614 4.6427,12.32689 3.1012,28.19967 -1.5414,33.48259 -0.8705,1.32073 -1.7545,2.00037 -2.5844,2.14103 z m -325.6875,-33.40519 c 3.6753,1.76093 8.6838,-6.60879 14.1001,-25.09899 6.1903,-14.08782 3.1133,-29.92798 -4.6245,-35.21089 -9.2853,-7.04384 -15.483,5.26403 -15.483,24.63476 0,22.01219 2.3319,33.9142 6.0074,35.67512 z m 322.0832,-33.89531 c -7.7377,0 -20.1348,-12.34564 -24.7774,-28.19438 -6.1902,-17.60968 -1.5385,-24.6485 9.2943,-21.12651 23.2132,8.8049 35.6012,49.32089 15.4831,49.32089 z M 1858.129,541.46858 c -6.88,-0.1289 -10.8812,-25.40857 -9.4304,-58.42679 3.0952,-79.24372 21.6718,-102.12943 21.6718,-28.16863 0,31.69749 -0.01,61.62374 1.5415,68.66759 0,7.04384 -4.6397,15.85732 -12.3773,17.61825 -0.4837,0.22017 -0.9469,0.31817 -1.4056,0.30958 z m 1049.1055,-83.08717 c -7.7377,0 -15.483,-24.64678 -15.483,-54.58334 0,-29.93642 6.1977,-49.29685 15.483,-42.25301 9.2853,5.28292 15.4605,29.92969 15.4605,54.58334 0,22.89258 -6.1752,42.25301 -15.4605,42.25301 z m -581.8943,-17.59263 c 4.6426,0 12.3819,-7.05243 17.0246,-17.61826 4.6426,-8.8049 1.549,-17.61825 -6.1888,-17.61825 -9.2853,0 -17.0244,8.81335 -17.0244,17.61825 0,10.56583 3.0935,17.61826 6.1886,17.61826 z" />
  </g>
</svg>
